<svg width="24" height="24" viewBox="0 0 24 24" fill="none" xmlns="http://www.w3.org/2000/svg">
<g id="Property 1=Closed">
<path id="Vector" d="M24 11.7022V12.2971L23.9883 12.4325L23.9733 12.5675L23.9545 12.7011L23.933 12.8338L23.9072 12.9655L23.8786 13.0963L23.8463 13.2257L23.8106 13.3546L23.76 13.5163L23.7042 13.6766L23.6428 13.8355L23.5758 13.9925L23.5031 14.1477L23.4253 14.3014L23.3414 14.4538L23.2523 14.6043L23.0831 14.8743L22.9102 15.1391L22.7334 15.3993L22.553 15.6547L22.3683 15.905L22.1798 16.1507L21.9877 16.3916L21.7917 16.6279L21.592 16.8589L21.3881 17.0854L21.1805 17.3066L20.9691 17.5232L20.7534 17.735L20.5345 17.9422L20.3114 18.1443L20.0845 18.3416L19.8553 18.5329L19.6242 18.7175L19.3903 18.8961L19.1545 19.0682L18.9164 19.2341L18.6759 19.3939L18.4336 19.5472L18.1889 19.6944L17.9419 19.835L17.6925 19.9696L17.4412 20.098L17.1872 20.2199L16.9313 20.3357L16.6734 20.4449L16.4128 20.548L16.1503 20.645L15.8953 20.7322L15.6384 20.8138L15.3792 20.8893L15.1181 20.9591L14.8547 21.0233L14.5894 21.0814L14.3222 21.1339L14.0527 21.1804L13.7808 21.2211L13.5075 21.2558L13.2319 21.2849L12.9539 21.3083L12.6741 21.3257L12.3923 21.3374L12.1083 21.343H11.8223L11.4708 21.3346L11.1216 21.3163L10.7747 21.2882L10.4302 21.2507L10.088 21.2033L9.74813 21.1461L9.41109 21.0796L9.07594 21.0032L8.86312 20.9493L8.65172 20.8911L8.44078 20.8297L8.23125 20.7636L8.02219 20.6943L7.81453 20.6202L7.60734 20.5429L7.40156 20.4613L7.19672 20.3755L6.99281 20.286L6.78984 20.1927L6.58781 20.0952L6.38672 19.9939L6.18656 19.8885L5.98734 19.7793L5.78906 19.6658L5.77781 19.6611L5.7675 19.6607L5.75672 19.6639L5.74687 19.6714L2.73469 22.6836L2.6775 22.738L2.61844 22.7872L2.55844 22.8318L2.4975 22.8711L2.43516 22.9054L2.37141 22.9349L2.30625 22.9593L2.24016 22.9785L2.18578 22.9907L2.13047 22.9996L2.07469 23.0052L2.01797 23.0075L1.96031 23.0066L1.90172 23.0024L1.84266 22.9954L1.78266 22.9846L1.69875 22.9639L1.61906 22.9368L1.54125 22.9021L1.46812 22.8618L1.40391 22.8186L1.34344 22.7708L1.28625 22.7174L1.23422 22.6602L1.18594 22.5979L1.14328 22.5322L1.10531 22.4638L1.07297 22.3921L1.04625 22.318L1.02516 22.2421L1.01016 22.1643L1.00078 22.0855L0.9975 22.0063L1.00078 21.9271L1.00969 21.8493L1.02516 21.7714L1.05141 21.681L1.08609 21.5919L1.10953 21.546L1.14047 21.4954L1.17891 21.4405L1.22484 21.3814L1.33922 21.2497L1.48359 21.1002L2.79 19.8013L4.0875 18.5005L4.09219 18.4883L4.08703 18.4771L4.08656 18.4766L3.84844 18.2727L3.615 18.065L3.38578 17.8532L3.16125 17.6375L2.94141 17.4177L2.72625 17.1941L2.51578 16.9663L2.30953 16.7343L2.09203 16.4793L1.87969 16.2196L1.67297 15.9552L1.47141 15.6861L1.27547 15.4129L1.08469 15.1344L0.899063 14.8513L0.719063 14.5635L0.609844 14.376L0.509531 14.1847L0.417656 13.9907L0.334688 13.7924L0.269062 13.6157L0.210469 13.4361L0.158438 13.2538L0.112969 13.0686L0.0745312 12.8807L0.043125 12.6904L0.0182812 12.4977L0 12.3018V11.6919L0.015 11.525L0.0351562 11.3605L0.0604687 11.1969L0.0909375 11.0357L0.126563 10.8758L0.166875 10.7183L0.212344 10.5618L0.263438 10.4075L0.307969 10.2833L0.35625 10.1605L0.407812 10.0391L0.462656 9.91816L0.520781 9.79863L0.582656 9.68051L0.647344 9.56332L0.715781 9.44754L0.909844 9.13488L1.11094 8.82691L1.31813 8.52457L1.53188 8.22738L1.75031 7.93723L1.97531 7.65223L2.20547 7.37426L2.44125 7.10238L2.68266 6.83707L2.92781 6.57973L3.17906 6.32895L3.43359 6.08566L3.69375 5.84988L3.95719 5.62254L4.22625 5.40176L4.49813 5.18941L4.77328 4.98551L5.05172 4.79051L5.33484 4.60254L5.62031 4.42395L5.90953 4.25332L6.20109 4.0916L6.49688 3.93738L6.79453 3.79301L7.09547 3.6566L7.39781 3.52957L7.70391 3.41051L8.01141 3.30129L8.32219 3.20004L8.63344 3.10863L8.94844 3.0252L9.26437 2.9516L9.50766 2.90098L9.75094 2.85504L9.99469 2.81332L10.2389 2.77723L10.4831 2.74535L10.7278 2.71816L10.9725 2.69613L11.2177 2.67832L11.5294 2.66332L11.8416 2.65535H12.1537L12.4669 2.66285L12.7805 2.67832L13.0945 2.70082L13.4086 2.73176L13.7236 2.76973L14.0334 2.8152L14.3414 2.86863L14.6475 2.93051L14.9517 3.00035L15.1631 3.05379L15.3741 3.11145L15.5836 3.17285L15.7927 3.23848L16.0003 3.30785L16.207 3.38145L16.4128 3.45879L16.6177 3.53988L16.8216 3.6252L17.0245 3.71473L17.2266 3.80801L17.4277 3.90504L17.6278 4.00629L17.827 4.11129L18.0248 4.22051L18.2222 4.33348L18.2311 4.33676L18.2409 4.33723L18.2503 4.33441L18.2583 4.32879L21.2789 1.30395L21.3398 1.2477L21.4036 1.19801L21.4716 1.15301L21.5423 1.11504L21.6206 1.08082L21.7013 1.0541L21.7847 1.03441L21.8686 1.02176L21.9548 1.0166L22.0411 1.01895L22.1283 1.02832L22.2141 1.0452L22.2984 1.06957L22.38 1.10098L22.4578 1.13848L22.5323 1.18254L22.6017 1.2327L22.6669 1.28848L22.7264 1.34895L22.7808 1.41551L22.8248 1.47879L22.8638 1.54629L22.897 1.6166L22.9256 1.69066L22.9491 1.76895L22.9659 1.84723L22.9762 1.92598L22.9805 2.00426L22.9795 2.05863L22.9758 2.11301L22.9688 2.16738L22.9584 2.22223L22.9453 2.2766L22.9289 2.33098L22.9097 2.38582L22.8872 2.4402L22.8675 2.48051L22.8422 2.52363L22.8113 2.5691L22.7756 2.61785L22.687 2.72238L22.5769 2.8377L19.9158 5.49363L19.9148 5.49457L19.9106 5.50207L19.9092 5.51098L19.9116 5.51941L19.9172 5.52645L20.1548 5.73035L20.3883 5.93801L20.617 6.14941L20.8411 6.36504L21.0605 6.58488L21.2756 6.80848L21.4856 7.03629L21.6914 7.26785L21.9 7.51207L22.1039 7.76098L22.3027 8.0141L22.4967 8.27145L22.6856 8.53301L22.8694 8.79879L23.0484 9.06879L23.2228 9.34348L23.3255 9.51598L23.4211 9.69035L23.5097 9.86613L23.5912 10.0443L23.6653 10.2243L23.7323 10.4061L23.7923 10.5899L23.8453 10.7755L23.8997 11.0029L23.9437 11.2335L23.977 11.4664L24 11.7022ZM10.5239 4.7591L10.2891 4.79379L10.057 4.8341L9.825 4.88004L9.59531 4.93113L9.33797 4.99535L9.08391 5.06613L8.83078 5.14441L8.58047 5.22879L8.33063 5.32066L8.08359 5.4191L7.83797 5.52457L7.59562 5.6366L7.35375 5.75566L7.11516 5.88129L6.87797 6.01395L6.64453 6.1527L6.41203 6.29848L6.18328 6.45082L5.95594 6.60973L5.73281 6.77426L5.51016 6.94676L5.29172 7.12488L5.07516 7.30957L4.86281 7.49988L4.65234 7.69723L4.44562 7.89973L4.24219 8.10879L4.0425 8.32301L3.84516 8.54426L3.6525 8.76973L3.46312 9.00176L3.27797 9.23801L3.09562 9.48129L2.91844 9.72832L2.74453 9.98098L2.57531 10.2374L2.50078 10.356L2.43234 10.4704L2.37 10.58L2.31375 10.6855L2.26406 10.7868L2.22 10.8833L2.18297 10.9757L2.15156 11.0638L2.11406 11.1871L2.08125 11.3104L2.05406 11.4332L2.0325 11.556L2.01609 11.6793L2.00437 11.8021L1.99875 11.9244L1.99781 12.0472L2.00156 12.1541L2.00953 12.261L2.02125 12.3679L2.03672 12.4747L2.05687 12.5816L2.08031 12.688L2.10844 12.7949L2.14031 12.9013L2.17125 12.9918L2.20781 13.0855L2.25 13.1821L2.29781 13.2824L2.35125 13.3855L2.41031 13.4924L2.47453 13.6021L2.54484 13.715L2.71875 13.9818L2.89781 14.2438L3.08203 14.5007L3.27188 14.7529L3.46641 14.9999L3.66656 15.2422L3.87187 15.4799L4.08234 15.7129L4.24922 15.89L4.41937 16.0644L4.59281 16.2355L4.76906 16.4043L4.94859 16.5697L5.13141 16.7324L5.3175 16.8922L5.50641 17.0488L5.51437 17.0535L5.52328 17.0544L5.53219 17.0525L5.53969 17.0474L7.81922 14.7679L7.82391 14.7608L7.82625 14.7529L7.8225 14.7369L7.73438 14.5968L7.65094 14.4547L7.57172 14.3099L7.49813 14.1632L7.42922 14.0146L7.36547 13.8641L7.30641 13.7113L7.2525 13.5571L7.20375 13.4014L7.16016 13.2444L7.12172 13.0855L7.08844 12.9257L7.06078 12.7649L7.03781 12.6032L7.02047 12.4414L7.00875 12.2793L7.00078 12.0575L7.00312 11.8354L7.01531 11.6136L7.03734 11.3929L7.06922 11.173L7.11141 10.9541L7.1625 10.7385L7.22344 10.5243L7.29422 10.3138L7.37438 10.1052L7.46344 9.90082L7.56188 9.69973L7.66875 9.50379L7.785 9.3116L7.90922 9.12457L8.04234 8.94176L8.18531 8.76363L8.33672 8.59207L8.49797 8.4266L8.66672 8.26863L8.84344 8.11816L9.02719 7.97613L9.2175 7.84207L9.41438 7.71691L9.61641 7.6016L9.82359 7.4952L10.0345 7.3991L10.2497 7.31285L10.4672 7.23738L10.688 7.17223L10.9111 7.11785L11.1342 7.07473L11.3409 7.04379L11.5467 7.02129L11.7506 7.00676L11.9536 7.00066L12.1556 7.00254L12.3558 7.01285L12.555 7.03113L12.7528 7.05785L12.8812 7.07941L13.0092 7.10473L13.1362 7.13332L13.2633 7.16566L13.3894 7.20129L13.515 7.2402L13.6402 7.28285L13.7648 7.32879L13.8891 7.37848L14.0123 7.43191L14.1356 7.48816L14.258 7.54816L14.3798 7.61192L14.5012 7.67895L14.6217 7.74926L14.7422 7.82332L14.7548 7.82613L14.7666 7.82051L16.7433 5.84379L16.7498 5.83535L16.7512 5.82738L16.748 5.81988L16.74 5.81285L16.6631 5.76645L16.5834 5.72426L16.2778 5.57941L15.9703 5.44488L15.6609 5.32113L15.3488 5.2077L15.0347 5.10504L14.7188 5.01316L14.4005 4.93113L14.0798 4.86035L13.8647 4.81863L13.6486 4.78207L13.4316 4.74973L13.2141 4.72207L12.9952 4.69957L12.7753 4.68129L12.5545 4.66816L12.3328 4.65926L12.1097 4.65551L11.8861 4.65598L11.6616 4.6616L11.4361 4.67145L11.2092 4.68645L10.9819 4.70613L10.7531 4.73004L10.5239 4.7591ZM16.7789 13.476L16.7156 13.6724L16.6439 13.866L16.5628 14.0577L16.4733 14.2457L16.3744 14.4322L16.2675 14.6141L16.1522 14.7922L16.0294 14.9657L15.8986 15.1349L15.7608 15.298L15.6164 15.4555L15.4659 15.606L15.3089 15.7504L15.1467 15.8877L14.9789 16.018L14.8059 16.1404L14.6058 16.2693L14.4019 16.3874L14.1923 16.4961L13.9795 16.5941L13.7611 16.6822L13.5398 16.7596L13.3148 16.8266L13.0875 16.8824L12.9666 16.9077L12.8447 16.9297L12.7228 16.9485L12.6005 16.9649L12.4772 16.9775L12.3539 16.9874L12.2302 16.9944L12.1059 16.9977L11.9822 16.9986L11.8584 16.9958L11.7347 16.9902L11.6109 16.9818L11.4872 16.9696L11.3639 16.955L11.2406 16.9368L11.1178 16.9157L10.9955 16.8918L10.8741 16.8646L10.7527 16.8346L10.6317 16.8013L10.5127 16.7652L10.3936 16.7263L10.2755 16.6846L10.1578 16.6396L10.0425 16.5918L9.92766 16.5411L9.81328 16.4877L9.70031 16.4314L9.58922 16.3724L9.47906 16.3105L9.36984 16.2458L9.26156 16.1783L9.24609 16.1746L9.23203 16.1816L7.25109 18.163L7.24922 18.1649L7.24641 18.1719V18.1789L7.24969 18.186L7.25531 18.1907L7.52578 18.3266L7.79813 18.4541L8.07281 18.5732L8.34984 18.6838L8.62875 18.7855L8.90953 18.8788L9.19312 18.9636L9.47812 19.04L9.75375 19.1052L10.0312 19.1624L10.3106 19.2116L10.5923 19.2533L10.8755 19.2871L11.1609 19.3129L11.4483 19.3307L11.7375 19.341L11.9587 19.3438L12.1786 19.3419L12.397 19.3363L12.6145 19.326L12.8302 19.3119L13.0448 19.2932L13.2581 19.2702L13.47 19.243L13.6805 19.2116L13.8895 19.176L14.0972 19.1361L14.3039 19.0921L14.5092 19.0438L14.7127 18.9913L14.9152 18.9341L15.1163 18.8732L15.2836 18.8188L15.4495 18.7616L15.6145 18.7011L15.7786 18.6379L15.9422 18.5718L16.1044 18.5024L16.2656 18.4302L16.4264 18.3552L16.5858 18.2774L16.7442 18.1963L16.9022 18.1119L17.0588 18.0252L17.2144 17.9352L17.3691 17.8424L17.5233 17.7463L17.6761 17.6474L17.933 17.473L18.187 17.2897L18.4369 17.0989L18.6834 16.8997L18.9267 16.6921L19.1663 16.4764L19.4016 16.2533L19.6331 16.0218L19.8605 15.7827L20.0845 15.5352L20.3044 15.2802L20.52 15.0172L20.7309 14.7482L20.9377 14.4711L21.1397 14.1866L21.3375 13.895L21.4692 13.6907L21.5794 13.5102L21.667 13.3522L21.7331 13.2182L21.7931 13.0752L21.8456 12.9322L21.8911 12.7893L21.9286 12.6458L21.9581 12.5024L21.9806 12.3589L21.9956 12.215L22.0027 12.0711L22.0022 11.9211L21.9938 11.7711L21.9769 11.6211L21.952 11.4707L21.9192 11.3197L21.878 11.1693L21.8288 11.0183L21.7711 10.8669L21.7392 10.7938L21.7013 10.7141L21.6056 10.5355L21.4842 10.3316L21.3375 10.1019L21.1266 9.79066L20.9081 9.48645L20.6831 9.18926L20.4516 8.89957L20.2125 8.61645L19.9664 8.34035L19.7137 8.07176L19.4541 7.8102L19.2211 7.58707L18.983 7.3691L18.7397 7.15676L18.4908 6.95004L18.4837 6.94629L18.4762 6.94535L18.4688 6.94723L18.4622 6.95145L16.1873 9.22676L16.1794 9.23707L16.1756 9.24785L16.1766 9.25957L16.1822 9.27129L16.2614 9.4002L16.3364 9.52957L16.4077 9.66035L16.4747 9.79207L16.538 9.92473L16.597 10.0579L16.6523 10.1924L16.7034 10.3274L16.7503 10.4638L16.7934 10.6007L16.8323 10.7385L16.8675 10.8768L16.898 11.0155L16.9247 11.1552L16.9477 11.2958L16.9659 11.4364L16.9791 11.5621L16.9884 11.6882L16.995 11.8147L16.9978 11.9413V12.0683L16.9945 12.1958L16.9875 12.3233L16.9777 12.4513L16.9641 12.5793L16.9477 12.7072L16.9275 12.8357L16.9045 12.9636L16.8778 13.0916L16.8483 13.2196L16.815 13.348L16.7789 13.476ZM13.2633 9.2891L13.1714 9.24832L13.08 9.21082L12.9867 9.17613L12.8939 9.14473L12.8006 9.1166L12.7073 9.09129L12.6131 9.06879L12.5189 9.04957L12.4237 9.03363L12.3295 9.02051L12.2339 9.01066L12.1388 9.0041L12.0436 9.00035L11.9489 8.99988L11.8538 9.0027L11.7591 9.00832L11.6287 9.02145L11.4994 9.0402L11.3709 9.06504L11.2439 9.09551L11.1173 9.13207L10.9927 9.17426L10.8689 9.22207L10.748 9.27551L10.6289 9.3341L10.5127 9.39785L10.3983 9.4677L10.2872 9.54223L10.1794 9.62145L10.0753 9.70535L9.97453 9.79395L9.87797 9.88629L9.78562 9.98285L9.6975 10.0836L9.61359 10.1877L9.53437 10.296L9.46031 10.4071L9.39094 10.521L9.32719 10.6372L9.26859 10.7563L9.21563 10.8772L9.16781 11.0005L9.12609 11.1252L9.09 11.2518L9.06 11.3788L9.03516 11.5072L9.01688 11.6361L9.00422 11.7664L8.99859 11.8607L8.99625 11.9554L8.99719 12.0496L9.00094 12.1443L9.00797 12.2389L9.01828 12.3341L9.03141 12.4283L9.04781 12.5225L9.06703 12.6163L9.08953 12.7105L9.11531 12.8033L9.14391 12.8961L9.17531 12.9885L9.21047 13.0813L9.24797 13.1722L9.28875 13.2636L9.29016 13.2664L9.29578 13.2716L9.30328 13.2739L9.31125 13.273L9.31781 13.2688L13.2684 9.31816L13.2727 9.3116L13.2736 9.30363L13.2712 9.2966L13.2661 9.29051L13.2633 9.2891ZM10.7353 14.7097L10.8225 14.7496L10.9106 14.7861L11.0006 14.8204L11.0916 14.8518L11.183 14.8799L11.2753 14.9052L11.3677 14.9277L11.4605 14.9469L11.5547 14.9629L11.6494 14.9764L11.7441 14.9863L11.8387 14.9938L11.9344 14.9975L12.0295 14.9985L12.1252 14.9966L12.2203 14.9914L12.3234 14.9821L12.4261 14.9694L12.5283 14.9535L12.6295 14.9333L12.7308 14.9099L12.8306 14.8832L12.93 14.8527L13.028 14.8185L13.1241 14.7814L13.2192 14.7411L13.313 14.6971L13.4053 14.6497L13.4958 14.5996L13.5844 14.5461L13.6716 14.4894L13.7569 14.4294L13.8745 14.3394L13.9866 14.2447L14.0944 14.1444L14.1966 14.0404L14.2936 13.9307L14.385 13.8172L14.4708 13.6991L14.5505 13.5772L14.6245 13.4511L14.692 13.3222L14.753 13.1905L14.8073 13.056L14.8552 12.9186L14.8959 12.7794L14.9302 12.6379L14.9573 12.4954L14.9733 12.3847L14.9855 12.2732L14.993 12.1616L14.9967 12.0491L14.9958 11.9375L14.9906 11.8255L14.9813 11.713L14.9677 11.601L14.9503 11.4904L14.9283 11.3793L14.9025 11.2705L14.872 11.1618L14.8378 11.0539L14.7994 10.9466L14.7572 10.8416L14.7108 10.7371L14.7052 10.7282L14.6986 10.7244L14.6911 10.7254L14.6827 10.7319L10.7311 14.6839L10.7273 14.6896L10.7264 14.6966L10.7283 14.7032L10.733 14.7083L10.7353 14.7097Z" fill="#575450"/>
</g>
</svg>
