<svg width="24" height="24" viewBox="0 0 24 24" fill="none" xmlns="http://www.w3.org/2000/svg">
<g id="Property 1=Open">
<path id="Vector" d="M24 11.7022V12.2966L23.9878 12.4353L23.9723 12.5731L23.9531 12.7095L23.9306 12.8455L23.9044 12.98L23.8744 13.1136L23.8406 13.2458L23.8036 13.377L23.7534 13.5359L23.6981 13.6934L23.6372 13.8491L23.5711 14.0033L23.4994 14.1561L23.4225 14.307L23.3405 14.4566L23.2528 14.6042L23.085 14.8719L22.912 15.1367L22.7353 15.3964L22.5534 15.6533L22.3688 15.9041L22.1789 16.1511L21.9858 16.393L21.7884 16.6311L21.5878 16.8631L21.3825 17.0909L21.1748 17.3127L20.9625 17.5306L20.7478 17.7416L20.5294 17.9483L20.3081 18.1484L20.0831 18.3439L19.8563 18.5328L19.6261 18.7161L19.3936 18.8933L19.1573 19.0653L18.9197 19.2303L18.6788 19.3902L18.4359 19.5434L18.1898 19.6911L17.9428 19.8317L17.6925 19.9667L17.4408 20.0952L17.1858 20.218L16.9303 20.3333L16.672 20.443L16.4123 20.5461L16.1498 20.6431L15.8344 20.7505L15.5166 20.8489L15.3066 20.9084L15.0952 20.9647L14.8823 21.0167L14.6686 21.065L14.4539 21.1091L14.2378 21.1498L14.0208 21.1864L13.8028 21.2192L13.5834 21.2478L13.3627 21.2731L13.1409 21.2942L12.9183 21.3116L12.6942 21.3252L12.4692 21.335L12.2433 21.3406L12.0159 21.3425L11.7563 21.3402L11.4984 21.3327L11.2425 21.3205L10.988 21.3031L10.7348 21.2811L10.4836 21.2544L10.2342 21.2225L9.98578 21.1859L9.73969 21.1442L9.495 21.0978L9.25172 21.0463L9.01031 20.99L8.77078 20.9286L8.53219 20.8625L8.29594 20.7913L8.06109 20.7153L7.85719 20.645L7.65422 20.5709L7.45266 20.4931L7.2525 20.4116L7.05375 20.3263L6.85594 20.2372L6.65953 20.1444L6.46406 20.0478L6.27047 19.9475L6.07734 19.8434L5.88609 19.7356L5.69578 19.6241L5.50688 19.5088L5.31938 19.3897L5.13281 19.2669L4.94766 19.1403L4.64156 18.9209L4.33922 18.6908L4.0425 18.4517L3.75047 18.2023L3.46359 17.9436L3.18141 17.675L2.90578 17.3984L2.63531 17.1125L2.37094 16.8177L2.11266 16.5139L1.86141 16.2036L1.61672 15.8844L1.37906 15.5581L1.14797 15.2244L0.925313 14.885L0.710156 14.5381L0.641719 14.4214L0.576563 14.3033L0.514687 14.1838L0.456094 14.0633L0.40125 13.9419L0.349688 13.8191L0.301875 13.6953L0.256875 13.5702L0.207188 13.4173L0.162656 13.2631L0.123281 13.107L0.0885938 12.9491L0.0590625 12.7897L0.0342188 12.6284L0.0145313 12.4658L0 12.3012V11.6914L0.0107812 11.5658L0.0248438 11.4411L0.0417188 11.3173L0.0614063 11.1945L0.084375 11.0722L0.110156 10.9508L0.13875 10.8303L0.170625 10.7103L0.22125 10.5402L0.277969 10.3714L0.34125 10.2045L0.410156 10.0395L0.485156 9.87594L0.566719 9.71422L0.653906 9.55438L0.747656 9.39594L0.928594 9.10672L1.11422 8.82359L1.30406 8.54563L1.49859 8.27328L1.69734 8.00656L1.90078 7.74547L2.10844 7.49L2.32031 7.23969L2.53688 6.99547L2.75813 6.75641L2.98359 6.52297L3.21328 6.29563L3.44766 6.07344L3.68625 5.85688L3.92953 5.64547L4.17703 5.44016L4.41937 5.24797L4.665 5.06281L4.91391 4.88375L5.16563 4.71172L5.42156 4.54578L5.68031 4.38641L5.94187 4.23406L6.20625 4.08875L6.47391 3.95L6.74438 3.81781L7.01719 3.69313L7.29281 3.575L7.57125 3.46391L7.85203 3.35984L8.13516 3.26281L8.42063 3.17281L8.63109 3.11141L8.84297 3.05375L9.05625 2.99984L9.27047 2.95016L9.48469 2.90422L9.70078 2.86203L9.91735 2.82406L10.1353 2.78938L10.3533 2.75938L10.5727 2.73266L10.7925 2.71016L11.0138 2.69141L11.235 2.67688L11.4572 2.66609L11.6803 2.65906L11.9039 2.65625L12.1861 2.65766L12.4659 2.66516L12.7439 2.67781L13.0195 2.69656L13.2938 2.72094L13.5656 2.75094L13.8352 2.78656L14.1033 2.82781L14.3691 2.87469L14.6325 2.92719L14.8945 2.98578L15.1542 3.04953L15.4116 3.11938L15.6675 3.19484L15.9211 3.27547L16.1723 3.36219L16.4339 3.45922L16.6931 3.56234L16.95 3.67156L17.205 3.78734L17.4577 3.90922L17.708 4.03719L17.9559 4.17172L18.202 4.31188L18.4453 4.45859L18.6867 4.61188L18.9263 4.77078L19.163 4.93625L19.3978 5.10828L19.6303 5.28594L19.8605 5.47016L20.0888 5.66047L20.3147 5.85734L20.5369 6.05891L20.7553 6.26516L20.97 6.47656L21.1809 6.69266L21.3877 6.91344L21.5911 7.13938L21.7903 7.37L21.9862 7.60531L22.178 7.84531L22.3659 8.09047L22.5502 8.34031L22.7302 8.59531L22.9069 8.855L23.0798 9.11938L23.2486 9.38844L23.3391 9.54125L23.4239 9.69547L23.5031 9.85156L23.5767 10.0095L23.6442 10.1689L23.7066 10.3297L23.7628 10.4923L23.8134 10.6569L23.8486 10.7839L23.8805 10.9123L23.9086 11.0413L23.9334 11.1716L23.9555 11.3028L23.9738 11.435L23.9883 11.5681L24 11.7022ZM7.53656 5.66234L7.3575 5.75094L7.17984 5.84328L7.00359 5.93938L6.82922 6.03875L6.65484 6.14234L6.48281 6.24969L6.31125 6.36031L6.1425 6.47469L5.97375 6.59281L5.80781 6.71422L5.64234 6.83984L5.47922 6.96828L5.31656 7.10094L5.15625 7.23688L4.99734 7.37656L4.84031 7.51906L4.68375 7.66578L4.53 7.81531L4.37719 7.96906L4.22719 8.12563L4.07766 8.28594L3.93047 8.44953L3.78469 8.61641L3.64125 8.78609L3.49922 8.96L3.35953 9.13625L3.22172 9.31578L3.08578 9.49813L2.95172 9.68469L2.82 9.87313L2.68969 10.0653L2.56219 10.2594L2.48906 10.3752L2.42203 10.4881L2.36063 10.5983L2.30531 10.7047L2.25516 10.8083L2.21156 10.9091L2.17359 11.0066L2.14125 11.1008L2.10609 11.2208L2.07562 11.3403L2.05031 11.4598L2.03016 11.5794L2.01469 11.6989L2.00437 11.8184L1.99922 11.9375V12.057L2.00344 12.1691L2.01234 12.2816L2.02547 12.3941L2.04328 12.5061L2.06578 12.6181L2.0925 12.7302L2.12391 12.8417L2.15953 12.9538L2.19187 13.0423L2.22938 13.1342L2.2725 13.2289L2.32125 13.3269L2.37469 13.4281L2.43375 13.5322L2.49844 13.6395L2.56828 13.7502L2.75906 14.038L2.95359 14.3188L3.15234 14.5925L3.35531 14.8592L3.5625 15.1194L3.77344 15.372L3.98766 15.6172L4.20563 15.8544L4.42734 16.0841L4.65188 16.3063L4.88109 16.5214L5.11313 16.7281L5.34844 16.9273L5.58609 17.1181L5.82844 17.3014L6.07313 17.4767L6.25078 17.5977L6.42938 17.7148L6.60938 17.8278L6.79031 17.9366L6.97266 18.0416L7.15641 18.1423L7.34109 18.2389L7.52719 18.3317L7.71422 18.4203L7.90266 18.5047L8.0925 18.5848L8.28328 18.6613L8.475 18.7339L8.66813 18.8019L8.86266 18.8661L9.05813 18.9261L9.29109 18.9922L9.52594 19.0522L9.76219 19.107L10.0003 19.1558L10.2398 19.1989L10.4813 19.2364L10.7245 19.2678L10.9692 19.2941L11.2158 19.3147L11.4638 19.3292L11.7136 19.3381L11.9653 19.3414L12.2184 19.3391L12.4734 19.3311L12.7298 19.317L12.9881 19.2978L13.2319 19.2739L13.4738 19.2439L13.7156 19.2078L13.9547 19.1661L14.2181 19.1127L14.4792 19.0527L14.7389 18.9847L14.9963 18.9102L15.2536 18.8281L15.5077 18.7395L15.7608 18.643L16.0111 18.5403L16.2609 18.4297L16.507 18.3125L16.7522 18.1883L16.9936 18.0575L17.2341 17.9192L17.4713 17.7748L17.7066 17.623L17.9381 17.4655L18.1683 17.2995L18.3947 17.1284L18.6188 16.9503L18.8391 16.7661L19.057 16.5748L19.2708 16.3784L19.4813 16.1755L19.688 15.9669L19.8914 15.7522L20.0902 15.5319L20.2856 15.3059L20.4759 15.0753L20.6634 14.8381L20.8458 14.5972L21.0239 14.3502L21.1969 14.0994L21.2808 13.9761L21.4584 13.7117L21.5808 13.5167L21.6323 13.4277L21.6769 13.3438L21.7148 13.2659L21.7472 13.1923L21.7861 13.092L21.8222 12.9922L21.8545 12.8928L21.8841 12.7939L21.9098 12.6955L21.9328 12.597L21.952 12.4995L21.9684 12.402L21.9811 12.305L21.9909 12.2084L21.997 12.1123L22.0003 12.0167L21.9998 11.9216L21.9966 11.8264L21.99 11.7317L21.9797 11.638L21.9572 11.4884L21.9263 11.3408L21.8869 11.1936L21.8391 11.0473L21.7833 10.9025L21.7186 10.7586L21.6464 10.6156L21.5653 10.4736L21.4013 10.2078L21.2311 9.94531L21.0558 9.68797L20.8744 9.43391L20.6887 9.18594L20.497 8.94219L20.3011 8.70453L20.0995 8.47109L19.8947 8.24422L19.6847 8.0225L19.4709 7.80781L19.252 7.59781L19.0308 7.39578L18.8044 7.19938L18.5747 7.00906L18.3422 6.82672L18.1069 6.65094L17.8697 6.48313L17.6278 6.32141L17.3845 6.16719L17.138 6.02047L16.8895 5.88125L16.6378 5.74859L16.3847 5.62438L16.1292 5.50719L15.8723 5.39797L15.6122 5.29625L15.3516 5.20203L15.0886 5.11578L14.8256 5.0375L14.5589 4.96672L14.2927 4.90391L14.0789 4.85938L13.8647 4.81859L13.6495 4.78297L13.4339 4.75156L13.2169 4.72438L12.9994 4.70141L12.7819 4.68313L12.5639 4.66953L12.3459 4.66016L12.1275 4.65547L11.9095 4.655L11.6911 4.65922L11.4741 4.66766L11.257 4.68078L11.0405 4.69813L10.8239 4.72016L10.6092 4.74688L10.395 4.77734L10.1817 4.81297L9.96891 4.85234L9.75703 4.89641L9.54656 4.94516L9.33844 4.99766L9.13125 5.05484L8.92547 5.11578L8.72109 5.18141L8.51953 5.25125L8.31891 5.32531L8.12063 5.40313L7.92328 5.48563L7.72922 5.57188L7.53656 5.66234Z" fill="#575450"/>
<path id="Vector_2" d="M16.9985 12.0002L16.9971 12.123L16.9924 12.2454L16.9849 12.3677L16.9746 12.4901L16.961 12.612L16.9446 12.7338L16.9249 12.8548L16.9024 12.9752L16.8771 13.0952L16.8485 13.2148L16.8176 13.3334L16.7834 13.451L16.7463 13.5682L16.7065 13.684L16.6638 13.7993L16.6179 13.9132L16.5696 14.0257L16.5185 14.1373L16.4646 14.2474L16.4084 14.3566L16.3493 14.464L16.2874 14.5699L16.2232 14.6745L16.1562 14.7771L16.0868 14.8784L16.0151 14.9777L15.9405 15.0752L15.8641 15.1713L15.7849 15.2651L15.7038 15.357L15.6204 15.447L15.5346 15.5346L15.447 15.6204L15.357 15.7038L15.2651 15.7849L15.1713 15.8641L15.0752 15.9405L14.9777 16.0151L14.8784 16.0868L14.7771 16.1562L14.6745 16.2232L14.5699 16.2874L14.464 16.3493L14.3566 16.4084L14.2474 16.4646L14.1373 16.5185L14.0257 16.5696L13.9132 16.6179L13.7993 16.6638L13.684 16.7065L13.5682 16.7463L13.451 16.7834L13.3334 16.8176L13.2148 16.8485L13.0952 16.8771L12.9752 16.9024L12.8548 16.9249L12.7338 16.9446L12.612 16.961L12.4901 16.9746L12.3677 16.9849L12.2454 16.9924L12.123 16.9971L12.0002 16.9985L11.8774 16.9971L11.7551 16.9924L11.6327 16.9849L11.5104 16.9746L11.3885 16.961L11.2666 16.9446L11.1457 16.9249L11.0252 16.9024L10.9052 16.8771L10.7857 16.8485L10.6671 16.8176L10.5495 16.7834L10.4323 16.7463L10.3165 16.7065L10.2012 16.6638L10.0873 16.6179L9.97477 16.5696L9.8632 16.5185L9.75305 16.4646L9.64383 16.4084L9.53648 16.3493L9.43055 16.2874L9.32602 16.2232L9.22336 16.1562L9.12211 16.0868L9.02273 16.0151L8.92523 15.9405L8.82914 15.8641L8.73539 15.7849L8.64352 15.7038L8.55352 15.6204L8.46586 15.5346L8.38008 15.447L8.29664 15.357L8.21555 15.2651L8.13633 15.1713L8.05992 15.0752L7.98539 14.9777L7.91367 14.8784L7.8443 14.7771L7.77727 14.6745L7.71305 14.5699L7.65117 14.464L7.59211 14.3566L7.53586 14.2474L7.48195 14.1373L7.43086 14.0257L7.38258 13.9132L7.33664 13.7993L7.29398 13.684L7.25414 13.5682L7.21711 13.451L7.18289 13.3334L7.15195 13.2148L7.12336 13.0952L7.09805 12.9752L7.07555 12.8548L7.05586 12.7338L7.03945 12.612L7.02586 12.4901L7.01555 12.3677L7.00805 12.2454L7.00336 12.123L7.00195 12.0002L7.00336 11.8774L7.00805 11.7551L7.01555 11.6327L7.02586 11.5104L7.03945 11.3885L7.05586 11.2666L7.07555 11.1457L7.09805 11.0252L7.12336 10.9052L7.15195 10.7857L7.18289 10.6671L7.21711 10.5495L7.25414 10.4323L7.29398 10.3165L7.33664 10.2012L7.38258 10.0873L7.43086 9.97477L7.48195 9.8632L7.53586 9.75305L7.59211 9.64383L7.65117 9.53648L7.71305 9.43055L7.77727 9.32602L7.8443 9.22336L7.91367 9.12211L7.98539 9.02273L8.05992 8.92523L8.13633 8.82914L8.21555 8.73539L8.29664 8.64352L8.38008 8.55352L8.46586 8.46586L8.55352 8.38008L8.64352 8.29664L8.73539 8.21555L8.82914 8.13633L8.92523 8.05992L9.02273 7.98539L9.12211 7.91367L9.22336 7.8443L9.32602 7.77727L9.43055 7.71305L9.53648 7.65117L9.64383 7.59211L9.75305 7.53586L9.8632 7.48195L9.97477 7.43086L10.0873 7.38258L10.2012 7.33664L10.3165 7.29398L10.4323 7.25414L10.5495 7.21711L10.6671 7.18289L10.7857 7.15195L10.9052 7.12336L11.0252 7.09805L11.1457 7.07555L11.2666 7.05586L11.3885 7.03945L11.5104 7.02586L11.6327 7.01555L11.7551 7.00805L11.8774 7.00336L12.0002 7.00195L12.123 7.00336L12.2454 7.00805L12.3677 7.01555L12.4901 7.02586L12.612 7.03945L12.7338 7.05586L12.8548 7.07555L12.9752 7.09805L13.0952 7.12336L13.2148 7.15195L13.3334 7.18289L13.451 7.21711L13.5682 7.25414L13.684 7.29398L13.7993 7.33664L13.9132 7.38258L14.0257 7.43086L14.1373 7.48195L14.2474 7.53586L14.3566 7.59211L14.464 7.65117L14.5699 7.71305L14.6745 7.77727L14.7771 7.8443L14.8784 7.91367L14.9777 7.98539L15.0752 8.05992L15.1713 8.13633L15.2651 8.21555L15.357 8.29664L15.447 8.38008L15.5346 8.46586L15.6204 8.55352L15.7038 8.64352L15.7849 8.73539L15.8641 8.82914L15.9405 8.92523L16.0151 9.02273L16.0868 9.12211L16.1562 9.22336L16.2232 9.32602L16.2874 9.43055L16.3493 9.53648L16.4084 9.64383L16.4646 9.75305L16.5185 9.8632L16.5696 9.97477L16.6179 10.0873L16.6638 10.2012L16.7065 10.3165L16.7463 10.4323L16.7834 10.5495L16.8176 10.6671L16.8485 10.7857L16.8771 10.9052L16.9024 11.0252L16.9249 11.1457L16.9446 11.2666L16.961 11.3885L16.9746 11.5104L16.9849 11.6327L16.9924 11.7551L16.9971 11.8774L16.9985 12.0002ZM14.9988 12.0002L14.9951 11.853L14.9843 11.7063L14.9665 11.5601L14.9412 11.4152L14.9088 11.2718L14.8699 11.1298L14.8235 10.9901L14.7705 10.8527L14.711 10.7182L14.6449 10.5865L14.5723 10.4585L14.4935 10.3343L14.4087 10.2138L14.3182 10.098L14.2221 9.98648L14.1204 9.88008L14.014 9.77836L13.9024 9.68227L13.7866 9.5918L13.6662 9.50695L13.542 9.4282L13.414 9.35555L13.2823 9.28945L13.1477 9.22992L13.0104 9.17695L12.8707 9.13055L12.7287 9.09164L12.5852 9.0593L12.4404 9.03398L12.2941 9.01617L12.1474 9.00539L12.0002 9.00164L11.853 9.00539L11.7063 9.01617L11.5601 9.03398L11.4152 9.0593L11.2718 9.09164L11.1298 9.13055L10.9901 9.17695L10.8527 9.22992L10.7182 9.28945L10.5865 9.35555L10.4585 9.4282L10.3343 9.50695L10.2138 9.5918L10.098 9.68227L9.98648 9.77836L9.88008 9.88008L9.77836 9.98648L9.68227 10.098L9.5918 10.2138L9.50695 10.3343L9.4282 10.4585L9.35555 10.5865L9.28945 10.7182L9.22992 10.8527L9.17695 10.9901L9.13055 11.1298L9.09164 11.2718L9.0593 11.4152L9.03398 11.5601L9.01617 11.7063L9.00539 11.853L9.00164 12.0002L9.00539 12.1474L9.01617 12.2941L9.03398 12.4404L9.0593 12.5852L9.09164 12.7287L9.13055 12.8707L9.17695 13.0104L9.22992 13.1477L9.28945 13.2823L9.35555 13.414L9.4282 13.542L9.50695 13.6662L9.5918 13.7866L9.68227 13.9024L9.77836 14.014L9.88008 14.1204L9.98648 14.2221L10.098 14.3182L10.2138 14.4087L10.3343 14.4935L10.4585 14.5723L10.5865 14.6449L10.7182 14.711L10.8527 14.7705L10.9901 14.8235L11.1298 14.8699L11.2718 14.9088L11.4152 14.9412L11.5601 14.9665L11.7063 14.9843L11.853 14.9951L12.0002 14.9988L12.1474 14.9951L12.2941 14.9843L12.4404 14.9665L12.5852 14.9412L12.7287 14.9088L12.8707 14.8699L13.0104 14.8235L13.1477 14.7705L13.2823 14.711L13.414 14.6449L13.542 14.5723L13.6662 14.4935L13.7866 14.4087L13.9024 14.3182L14.014 14.2221L14.1204 14.1204L14.2221 14.014L14.3182 13.9024L14.4087 13.7866L14.4935 13.6662L14.5723 13.542L14.6449 13.414L14.711 13.2823L14.7705 13.1477L14.8235 13.0104L14.8699 12.8707L14.9088 12.7287L14.9412 12.5852L14.9665 12.4404L14.9843 12.2941L14.9951 12.1474L14.9988 12.0002Z" fill="#575450"/>
</g>
</svg>
