<?xml version="1.0" standalone="no"?>
<!DOCTYPE svg PUBLIC "-//W3C//DTD SVG 20010904//EN"
 "http://www.w3.org/TR/2001/REC-SVG-20010904/DTD/svg10.dtd">
<svg version="1.0" xmlns="http://www.w3.org/2000/svg"
 width="91.000000pt" height="91.000000pt" viewBox="0 0 91.000000 91.000000"
 preserveAspectRatio="xMidYMid meet">
<metadata>
Created by potrace 1.14, written by Peter Selinger 2001-2017
</metadata>
<g transform="translate(0.000000,91.000000) scale(0.100000,-0.100000)"
fill="#000000" stroke="none">
<path d="M382 774 c-68 -18 -99 -35 -142 -77 -109 -107 -114 -284 -11 -396 32
-36 40 -50 19 -34 -7 5 -22 8 -33 7 -33 -5 -58 -5 -84 -2 -23 3 -25 -1 -27
-40 -2 -49 10 -61 36 -37 18 16 20 16 35 1 21 -20 44 -21 51 -1 8 19 28 19 44
0 14 -16 59 -13 70 5 5 8 9 7 13 -2 5 -15 79 -20 92 -6 4 3 22 0 42 -8 24 -11
38 -12 47 -5 7 6 16 8 19 4 4 -3 13 -1 20 5 8 7 17 9 20 5 10 -10 70 -11 89
-1 9 4 19 4 22 -1 10 -15 96 -10 96 6 0 8 -8 17 -18 21 -9 4 -18 14 -18 22 -2
44 -47 70 -60 36 -6 -15 -34 -11 -34 5 0 6 9 20 21 32 65 70 80 204 33 303
-21 43 -87 110 -134 134 -33 17 -55 22 -130 34 -14 2 -49 -3 -78 -10z"/>
</g>
</svg>
